<mxfile host="app.diagrams.net" modified="2023-10-15T03:23:34.486Z" agent="Mozilla/5.0 (Macintosh; Intel Mac OS X 10_15_7) AppleWebKit/537.36 (KHTML, like Gecko) Chrome/117.0.0.0 Safari/537.36" version="22.0.4" etag="gDynHjF3s7XEhH5z0WW8" type="github">
  <diagram name="페이지-1" id="22abzVtp3eC7A8NkzuP4">
    <mxGraphModel>
      <root>
        <mxCell id="0" />
        <mxCell id="1" parent="0" />
      </root>
    </mxGraphModel>
  </diagram>
</mxfile>
